<mxfile host="app.diagrams.net" modified="2024-07-15T11:43:14.708Z" agent="Mozilla/5.0 (Windows NT 10.0; Win64; x64) AppleWebKit/537.36 (KHTML, like Gecko) Chrome/126.0.0.0 Safari/537.36" etag="EYwja0VmasiRCyMJ0b7m" version="24.6.4" type="device">
  <diagram name="Página-1" id="uZ0j-PDT2yEkDYYyR6LV">
    <mxGraphModel dx="2005" dy="3249" grid="1" gridSize="10" guides="1" tooltips="1" connect="1" arrows="1" fold="1" page="1" pageScale="1" pageWidth="827" pageHeight="1169" math="0" shadow="0">
      <root>
        <mxCell id="0" />
        <mxCell id="1" parent="0" />
        <object placeholders="1" c4Name="Rendix" c4Type="ContainerScopeBoundary" c4Application="Container" label="&lt;font style=&quot;font-size: 16px&quot;&gt;&lt;b&gt;&lt;div style=&quot;text-align: left&quot;&gt;%c4Name%&lt;/div&gt;&lt;/b&gt;&lt;/font&gt;&lt;div style=&quot;text-align: left&quot;&gt;[%c4Application%]&lt;/div&gt;" id="nhsElahdcYhkOj0Tyt5h-4">
          <mxCell style="rounded=1;fontSize=11;whiteSpace=wrap;html=1;dashed=1;arcSize=20;fillColor=default;strokeColor=#4fb4fa;fontColor=#333333;labelBackgroundColor=none;align=left;verticalAlign=bottom;labelBorderColor=none;spacingTop=0;spacing=10;dashPattern=8 4;metaEdit=1;rotatable=0;perimeter=rectanglePerimeter;noLabel=0;labelPadding=0;allowArrows=0;connectable=0;expand=0;recursiveResize=0;editable=1;pointerEvents=0;absoluteArcSize=1;points=[[0.25,0,0],[0.5,0,0],[0.75,0,0],[1,0.25,0],[1,0.5,0],[1,0.75,0],[0.75,1,0],[0.5,1,0],[0.25,1,0],[0,0.75,0],[0,0.5,0],[0,0.25,0]];" parent="1" vertex="1">
            <mxGeometry x="-160" y="-950" width="1240" height="510" as="geometry" />
          </mxCell>
        </object>
        <object placeholders="1" c4Name="Rendix" c4Type="ContainerScopeBoundary" c4Application="Container" label="&lt;font style=&quot;font-size: 16px&quot;&gt;&lt;b&gt;&lt;div style=&quot;text-align: left&quot;&gt;%c4Name%&lt;/div&gt;&lt;/b&gt;&lt;/font&gt;&lt;div style=&quot;text-align: left&quot;&gt;[%c4Application%]&lt;/div&gt;" id="9LjVpIPV9_LV7MafVZk_-13">
          <mxCell style="rounded=1;fontSize=11;whiteSpace=wrap;html=1;dashed=1;arcSize=20;fillColor=default;strokeColor=#4fb4fa;fontColor=#333333;labelBackgroundColor=none;align=left;verticalAlign=bottom;labelBorderColor=none;spacingTop=0;spacing=10;dashPattern=8 4;metaEdit=1;rotatable=0;perimeter=rectanglePerimeter;noLabel=0;labelPadding=0;allowArrows=0;connectable=0;expand=0;recursiveResize=0;editable=1;pointerEvents=0;absoluteArcSize=1;points=[[0.25,0,0],[0.5,0,0],[0.75,0,0],[1,0.25,0],[1,0.5,0],[1,0.75,0],[0.75,1,0],[0.5,1,0],[0.25,1,0],[0,0.75,0],[0,0.5,0],[0,0.25,0]];" parent="1" vertex="1">
            <mxGeometry x="-160" y="-400" width="1240" height="810" as="geometry" />
          </mxCell>
        </object>
        <mxCell id="nhsElahdcYhkOj0Tyt5h-2" value="DMZ" style="rounded=1;whiteSpace=wrap;html=1;sketch=1;curveFitting=1;jiggle=2;shadow=1;strokeColor=#1ba2ff;verticalAlign=bottom;align=left;" parent="1" vertex="1">
          <mxGeometry x="-120" y="-340" width="450" height="470" as="geometry" />
        </mxCell>
        <mxCell id="9LjVpIPV9_LV7MafVZk_-10" value="Backend" style="rounded=1;whiteSpace=wrap;html=1;sketch=1;curveFitting=1;jiggle=2;shadow=1;strokeColor=#1ba2ff;verticalAlign=bottom;align=left;glass=0;" parent="1" vertex="1">
          <mxGeometry x="380" y="-330" width="680" height="530" as="geometry" />
        </mxCell>
        <mxCell id="nhsElahdcYhkOj0Tyt5h-1" value="Solução do&lt;div&gt;banco&lt;/div&gt;" style="rounded=1;whiteSpace=wrap;html=1;sketch=1;curveFitting=1;jiggle=2;shadow=1;strokeColor=#1ba2ff;dashed=1;strokeWidth=1;perimeterSpacing=0;dashPattern=8 8;verticalAlign=top;align=center;" parent="1" vertex="1">
          <mxGeometry x="840" y="-320" width="160" height="480" as="geometry" />
        </mxCell>
        <mxCell id="9LjVpIPV9_LV7MafVZk_-27" value="Entidades" style="rounded=1;whiteSpace=wrap;html=1;sketch=1;curveFitting=1;jiggle=2;shadow=1;strokeColor=#1ba2ff;verticalAlign=top;align=center;" parent="1" vertex="1">
          <mxGeometry x="-40" y="-1664" width="970" height="384" as="geometry" />
        </mxCell>
        <mxCell id="9LjVpIPV9_LV7MafVZk_-2" value="Solução Rendix" style="rounded=1;whiteSpace=wrap;html=1;sketch=1;curveFitting=1;jiggle=2;shadow=1;strokeColor=#1ba2ff;dashed=1;strokeWidth=1;perimeterSpacing=0;dashPattern=8 8;verticalAlign=top;align=center;" parent="1" vertex="1">
          <mxGeometry x="390" y="-320" width="410" height="470" as="geometry" />
        </mxCell>
        <mxCell id="t1MQLtx_i-sLdBep8YN4-1" value="front-end" style="rounded=1;whiteSpace=wrap;html=1;sketch=1;curveFitting=1;jiggle=2;shadow=1;strokeColor=#1ba2ff;" parent="1" vertex="1">
          <mxGeometry x="-80" y="-280" width="120" height="60" as="geometry" />
        </mxCell>
        <mxCell id="t1MQLtx_i-sLdBep8YN4-2" value="" style="endArrow=classic;html=1;rounded=0;sketch=1;curveFitting=1;jiggle=2;shadow=1;flowAnimation=0;strokeColor=#0284f1;exitX=1;exitY=0.5;exitDx=0;exitDy=0;" parent="1" source="t1MQLtx_i-sLdBep8YN4-1" edge="1">
          <mxGeometry width="50" height="50" relative="1" as="geometry">
            <mxPoint x="50" y="-240" as="sourcePoint" />
            <mxPoint x="160" y="-250" as="targetPoint" />
          </mxGeometry>
        </mxCell>
        <mxCell id="t1MQLtx_i-sLdBep8YN4-3" value="link" style="edgeLabel;html=1;align=center;verticalAlign=middle;resizable=0;points=[];" parent="t1MQLtx_i-sLdBep8YN4-2" vertex="1" connectable="0">
          <mxGeometry x="0.2227" y="-2" relative="1" as="geometry">
            <mxPoint x="-18" y="6" as="offset" />
          </mxGeometry>
        </mxCell>
        <mxCell id="t1MQLtx_i-sLdBep8YN4-4" value="BFF" style="rounded=1;whiteSpace=wrap;html=1;fillColor=#1ba2ff;sketch=1;curveFitting=1;jiggle=2;shadow=1;strokeColor=#1ba2ff;" parent="1" vertex="1">
          <mxGeometry x="160" y="-280" width="120" height="60" as="geometry" />
        </mxCell>
        <mxCell id="t1MQLtx_i-sLdBep8YN4-5" value="Gerenciador&lt;div&gt;(sms, e-mail)&lt;/div&gt;" style="rounded=1;whiteSpace=wrap;html=1;fillColor=#1ba2ff;sketch=1;curveFitting=1;jiggle=2;shadow=1;strokeColor=#1ba2ff;" parent="1" vertex="1">
          <mxGeometry x="400" y="-280" width="120" height="60" as="geometry" />
        </mxCell>
        <mxCell id="t1MQLtx_i-sLdBep8YN4-6" value="" style="endArrow=classic;html=1;rounded=0;sketch=1;curveFitting=1;jiggle=2;shadow=1;flowAnimation=0;strokeColor=#0284f1;exitX=1;exitY=0.5;exitDx=0;exitDy=0;entryX=0;entryY=0.5;entryDx=0;entryDy=0;" parent="1" source="t1MQLtx_i-sLdBep8YN4-4" target="t1MQLtx_i-sLdBep8YN4-5" edge="1">
          <mxGeometry width="50" height="50" relative="1" as="geometry">
            <mxPoint x="280" y="-250.5" as="sourcePoint" />
            <mxPoint x="400" y="-250" as="targetPoint" />
          </mxGeometry>
        </mxCell>
        <mxCell id="t1MQLtx_i-sLdBep8YN4-7" value="link" style="edgeLabel;html=1;align=center;verticalAlign=middle;resizable=0;points=[];" parent="t1MQLtx_i-sLdBep8YN4-6" vertex="1" connectable="0">
          <mxGeometry x="0.2227" y="-2" relative="1" as="geometry">
            <mxPoint x="-18" y="6" as="offset" />
          </mxGeometry>
        </mxCell>
        <mxCell id="t1MQLtx_i-sLdBep8YN4-8" value="Vendas" style="ellipse;whiteSpace=wrap;html=1;fillColor=none;strokeColor=#1ba2ff;sketch=1;curveFitting=1;jiggle=2;shadow=1;" parent="1" vertex="1">
          <mxGeometry x="634" y="-280" width="120" height="60" as="geometry" />
        </mxCell>
        <mxCell id="t1MQLtx_i-sLdBep8YN4-9" value="" style="endArrow=classic;html=1;rounded=0;sketch=1;curveFitting=1;jiggle=2;shadow=1;flowAnimation=0;strokeColor=#1ba2ff;exitX=1;exitY=0.556;exitDx=0;exitDy=0;entryX=0;entryY=0.5;entryDx=0;entryDy=0;exitPerimeter=0;" parent="1" source="t1MQLtx_i-sLdBep8YN4-5" target="t1MQLtx_i-sLdBep8YN4-8" edge="1">
          <mxGeometry width="50" height="50" relative="1" as="geometry">
            <mxPoint x="514" y="-250.59000000000003" as="sourcePoint" />
            <mxPoint x="634" y="-250.59000000000003" as="targetPoint" />
          </mxGeometry>
        </mxCell>
        <mxCell id="t1MQLtx_i-sLdBep8YN4-10" value="link" style="edgeLabel;html=1;align=center;verticalAlign=middle;resizable=0;points=[];" parent="t1MQLtx_i-sLdBep8YN4-9" vertex="1" connectable="0">
          <mxGeometry x="0.2227" y="-2" relative="1" as="geometry">
            <mxPoint x="-18" y="6" as="offset" />
          </mxGeometry>
        </mxCell>
        <mxCell id="t1MQLtx_i-sLdBep8YN4-11" value="cadastro" style="ellipse;whiteSpace=wrap;html=1;fillColor=none;strokeColor=#1ba2ff;sketch=1;curveFitting=1;jiggle=2;shadow=1;" parent="1" vertex="1">
          <mxGeometry x="634" y="-3" width="120" height="60" as="geometry" />
        </mxCell>
        <mxCell id="t1MQLtx_i-sLdBep8YN4-12" value="" style="endArrow=classic;html=1;rounded=0;sketch=1;curveFitting=1;jiggle=2;shadow=1;flowAnimation=0;strokeColor=#0284f1;exitX=0.5;exitY=1;exitDx=0;exitDy=0;entryX=0;entryY=0.5;entryDx=0;entryDy=0;" parent="1" source="t1MQLtx_i-sLdBep8YN4-5" target="t1MQLtx_i-sLdBep8YN4-11" edge="1">
          <mxGeometry width="50" height="50" relative="1" as="geometry">
            <mxPoint x="440" y="-147" as="sourcePoint" />
            <mxPoint x="554" y="-150" as="targetPoint" />
            <Array as="points">
              <mxPoint x="460" y="27" />
            </Array>
          </mxGeometry>
        </mxCell>
        <mxCell id="t1MQLtx_i-sLdBep8YN4-13" value="link" style="edgeLabel;html=1;align=center;verticalAlign=middle;resizable=0;points=[];" parent="t1MQLtx_i-sLdBep8YN4-12" vertex="1" connectable="0">
          <mxGeometry x="0.2227" y="-2" relative="1" as="geometry">
            <mxPoint x="-18" y="6" as="offset" />
          </mxGeometry>
        </mxCell>
        <mxCell id="t1MQLtx_i-sLdBep8YN4-14" value="HC (validar CPF)" style="ellipse;whiteSpace=wrap;html=1;fillColor=none;strokeColor=#1ba2ff;sketch=1;curveFitting=1;jiggle=2;shadow=1;" parent="1" vertex="1">
          <mxGeometry x="860" y="-280" width="120" height="60" as="geometry" />
        </mxCell>
        <mxCell id="t1MQLtx_i-sLdBep8YN4-16" value="" style="endArrow=classic;html=1;rounded=0;sketch=1;curveFitting=1;jiggle=2;shadow=1;flowAnimation=0;strokeColor=#1ba2ff;exitX=1;exitY=0.5;exitDx=0;exitDy=0;entryX=-0.024;entryY=0.534;entryDx=0;entryDy=0;entryPerimeter=0;" parent="1" source="t1MQLtx_i-sLdBep8YN4-8" target="t1MQLtx_i-sLdBep8YN4-14" edge="1">
          <mxGeometry width="50" height="50" relative="1" as="geometry">
            <mxPoint x="754" y="-237" as="sourcePoint" />
            <mxPoint x="868" y="-240" as="targetPoint" />
          </mxGeometry>
        </mxCell>
        <mxCell id="t1MQLtx_i-sLdBep8YN4-17" value="link" style="edgeLabel;html=1;align=center;verticalAlign=middle;resizable=0;points=[];" parent="t1MQLtx_i-sLdBep8YN4-16" vertex="1" connectable="0">
          <mxGeometry x="0.2227" y="-2" relative="1" as="geometry">
            <mxPoint x="-18" y="6" as="offset" />
          </mxGeometry>
        </mxCell>
        <mxCell id="t1MQLtx_i-sLdBep8YN4-18" value="Caas (taxa)" style="ellipse;whiteSpace=wrap;html=1;fillColor=none;strokeColor=#1ba2ff;sketch=1;curveFitting=1;jiggle=2;shadow=1;" parent="1" vertex="1">
          <mxGeometry x="860" y="-190" width="120" height="60" as="geometry" />
        </mxCell>
        <mxCell id="t1MQLtx_i-sLdBep8YN4-19" value="" style="endArrow=classic;html=1;rounded=0;sketch=1;curveFitting=1;jiggle=2;shadow=1;flowAnimation=0;strokeColor=#1ba2ff;exitX=0.463;exitY=1.002;exitDx=0;exitDy=0;entryX=0;entryY=0.5;entryDx=0;entryDy=0;exitPerimeter=0;" parent="1" source="t1MQLtx_i-sLdBep8YN4-8" target="t1MQLtx_i-sLdBep8YN4-18" edge="1">
          <mxGeometry width="50" height="50" relative="1" as="geometry">
            <mxPoint x="746" y="-107" as="sourcePoint" />
            <mxPoint x="860" y="-110" as="targetPoint" />
            <Array as="points">
              <mxPoint x="690" y="-160" />
            </Array>
          </mxGeometry>
        </mxCell>
        <mxCell id="t1MQLtx_i-sLdBep8YN4-20" value="link" style="edgeLabel;html=1;align=center;verticalAlign=middle;resizable=0;points=[];" parent="t1MQLtx_i-sLdBep8YN4-19" vertex="1" connectable="0">
          <mxGeometry x="0.2227" y="-2" relative="1" as="geometry">
            <mxPoint x="-18" y="6" as="offset" />
          </mxGeometry>
        </mxCell>
        <mxCell id="t1MQLtx_i-sLdBep8YN4-21" value="Bass (Pix-cobrança&lt;div&gt;qrcode)&lt;/div&gt;" style="ellipse;whiteSpace=wrap;html=1;fillColor=none;strokeColor=#1ba2ff;sketch=1;curveFitting=1;jiggle=2;shadow=1;" parent="1" vertex="1">
          <mxGeometry x="860" y="-100" width="120" height="60" as="geometry" />
        </mxCell>
        <mxCell id="t1MQLtx_i-sLdBep8YN4-22" value="" style="endArrow=classic;html=1;rounded=0;sketch=1;curveFitting=1;jiggle=2;shadow=1;flowAnimation=0;strokeColor=#1ba2ff;entryX=0;entryY=0;entryDx=0;entryDy=0;exitX=0.087;exitY=0.77;exitDx=0;exitDy=0;exitPerimeter=0;" parent="1" source="t1MQLtx_i-sLdBep8YN4-8" target="t1MQLtx_i-sLdBep8YN4-11" edge="1">
          <mxGeometry width="50" height="50" relative="1" as="geometry">
            <mxPoint x="690" y="-220" as="sourcePoint" />
            <mxPoint x="870" y="-150" as="targetPoint" />
            <Array as="points">
              <mxPoint x="644" y="-150" />
              <mxPoint x="580" y="-150" />
              <mxPoint x="580" y="6" />
            </Array>
          </mxGeometry>
        </mxCell>
        <mxCell id="t1MQLtx_i-sLdBep8YN4-23" value="link" style="edgeLabel;html=1;align=center;verticalAlign=middle;resizable=0;points=[];" parent="t1MQLtx_i-sLdBep8YN4-22" vertex="1" connectable="0">
          <mxGeometry x="0.2227" y="-2" relative="1" as="geometry">
            <mxPoint x="-18" y="6" as="offset" />
          </mxGeometry>
        </mxCell>
        <mxCell id="t1MQLtx_i-sLdBep8YN4-24" value="" style="endArrow=classic;html=1;rounded=0;sketch=1;curveFitting=1;jiggle=2;shadow=1;flowAnimation=0;strokeColor=#1ba2ff;entryX=0.211;entryY=0.935;entryDx=0;entryDy=0;entryPerimeter=0;exitX=0.211;exitY=0.106;exitDx=0;exitDy=0;exitPerimeter=0;" parent="1" source="9LjVpIPV9_LV7MafVZk_-3" target="t1MQLtx_i-sLdBep8YN4-8" edge="1">
          <mxGeometry width="50" height="50" relative="1" as="geometry">
            <mxPoint x="700" y="-210" as="sourcePoint" />
            <mxPoint x="870" y="-60" as="targetPoint" />
            <Array as="points" />
          </mxGeometry>
        </mxCell>
        <mxCell id="t1MQLtx_i-sLdBep8YN4-25" value="link" style="edgeLabel;html=1;align=center;verticalAlign=middle;resizable=0;points=[];" parent="t1MQLtx_i-sLdBep8YN4-24" vertex="1" connectable="0">
          <mxGeometry x="0.2227" y="-2" relative="1" as="geometry">
            <mxPoint x="-18" y="6" as="offset" />
          </mxGeometry>
        </mxCell>
        <mxCell id="9LjVpIPV9_LV7MafVZk_-4" value="" style="endArrow=classic;html=1;rounded=0;sketch=1;curveFitting=1;jiggle=2;shadow=1;flowAnimation=0;strokeColor=#1ba2ff;exitX=0;exitY=0.5;exitDx=0;exitDy=0;entryX=1;entryY=0.5;entryDx=0;entryDy=0;" parent="1" source="t1MQLtx_i-sLdBep8YN4-21" target="9LjVpIPV9_LV7MafVZk_-3" edge="1">
          <mxGeometry width="50" height="50" relative="1" as="geometry">
            <mxPoint x="877" y="-49" as="sourcePoint" />
            <mxPoint x="659" y="-224" as="targetPoint" />
            <Array as="points" />
          </mxGeometry>
        </mxCell>
        <mxCell id="9LjVpIPV9_LV7MafVZk_-3" value="Cobrança" style="ellipse;whiteSpace=wrap;html=1;fillColor=none;strokeColor=#1ba2ff;sketch=1;curveFitting=1;jiggle=2;shadow=1;" parent="1" vertex="1">
          <mxGeometry x="634" y="-100" width="120" height="60" as="geometry" />
        </mxCell>
        <mxCell id="9LjVpIPV9_LV7MafVZk_-7" value="Sensidia&lt;br&gt;Gateway" style="rounded=1;whiteSpace=wrap;html=1;fillColor=#1ba2ff;sketch=1;curveFitting=1;jiggle=2;shadow=1;strokeColor=#1ba2ff;" parent="1" vertex="1">
          <mxGeometry x="-80" y="-130" width="120" height="60" as="geometry" />
        </mxCell>
        <mxCell id="9LjVpIPV9_LV7MafVZk_-8" value="" style="endArrow=classic;html=1;rounded=0;sketch=1;curveFitting=1;jiggle=2;shadow=1;flowAnimation=0;strokeColor=#0284f1;exitX=1;exitY=0.5;exitDx=0;exitDy=0;entryX=0.25;entryY=1;entryDx=0;entryDy=0;" parent="1" source="9LjVpIPV9_LV7MafVZk_-7" target="t1MQLtx_i-sLdBep8YN4-5" edge="1">
          <mxGeometry width="50" height="50" relative="1" as="geometry">
            <mxPoint x="60" y="-100" as="sourcePoint" />
            <mxPoint x="180" y="-100" as="targetPoint" />
            <Array as="points">
              <mxPoint x="430" y="-100" />
            </Array>
          </mxGeometry>
        </mxCell>
        <mxCell id="9LjVpIPV9_LV7MafVZk_-9" value="link" style="edgeLabel;html=1;align=center;verticalAlign=middle;resizable=0;points=[];" parent="9LjVpIPV9_LV7MafVZk_-8" vertex="1" connectable="0">
          <mxGeometry x="0.2227" y="-2" relative="1" as="geometry">
            <mxPoint x="-18" y="6" as="offset" />
          </mxGeometry>
        </mxCell>
        <object placeholders="1" c4Name="Parceiro" c4Type="Person" c4Description="Description of person." label="&lt;font style=&quot;font-size: 10px;&quot;&gt;&lt;b style=&quot;font-size: 10px;&quot;&gt;%c4Name%&lt;/b&gt;&lt;/font&gt;&lt;div style=&quot;font-size: 10px;&quot;&gt;[%c4Type%]&lt;/div&gt;&lt;br style=&quot;font-size: 10px;&quot;&gt;&lt;div style=&quot;font-size: 10px;&quot;&gt;&lt;font style=&quot;font-size: 10px;&quot;&gt;&lt;font style=&quot;font-size: 10px;&quot;&gt;%c4Description%&lt;/font&gt;&lt;/font&gt;&lt;/div&gt;" id="9LjVpIPV9_LV7MafVZk_-14">
          <mxCell style="html=1;fontSize=10;dashed=0;whiteSpace=wrap;fillColor=none;strokeColor=#2393f0;fontColor=#000000;shape=mxgraph.c4.person2;align=center;metaEdit=1;points=[[0.5,0,0],[1,0.5,0],[1,0.75,0],[0.75,1,0],[0.5,1,0],[0.25,1,0],[0,0.75,0],[0,0.5,0]];resizable=1;resizeHeight=1;resizeWidth=1;sketch=1;curveFitting=1;jiggle=2;shadow=1;" parent="1" vertex="1">
            <mxGeometry x="230" y="-1630" width="120" height="120" as="geometry" />
          </mxCell>
        </object>
        <object placeholders="1" c4Name="Lojista" c4Type="Person" c4Description="Description of person." label="&lt;font style=&quot;font-size: 10px;&quot;&gt;&lt;b style=&quot;font-size: 10px;&quot;&gt;%c4Name%&lt;/b&gt;&lt;/font&gt;&lt;div style=&quot;font-size: 10px;&quot;&gt;[%c4Type%]&lt;/div&gt;&lt;br style=&quot;font-size: 10px;&quot;&gt;&lt;div style=&quot;font-size: 10px;&quot;&gt;&lt;font style=&quot;font-size: 10px;&quot;&gt;&lt;font style=&quot;font-size: 10px;&quot;&gt;%c4Description%&lt;/font&gt;&lt;/font&gt;&lt;/div&gt;" id="9LjVpIPV9_LV7MafVZk_-18">
          <mxCell style="html=1;fontSize=10;dashed=0;whiteSpace=wrap;fillColor=none;strokeColor=#2393f0;fontColor=#000000;shape=mxgraph.c4.person2;align=center;metaEdit=1;points=[[0.5,0,0],[1,0.5,0],[1,0.75,0],[0.75,1,0],[0.5,1,0],[0.25,1,0],[0,0.75,0],[0,0.5,0]];resizable=1;resizeHeight=1;resizeWidth=1;sketch=1;curveFitting=1;jiggle=2;shadow=1;" parent="1" vertex="1">
            <mxGeometry x="495" y="-1630" width="120" height="120" as="geometry" />
          </mxCell>
        </object>
        <object placeholders="1" c4Name="Operador - Gateway" c4Type="Person" c4Description="Description of person." label="&lt;font style=&quot;font-size: 10px;&quot;&gt;&lt;b style=&quot;font-size: 10px;&quot;&gt;%c4Name%&lt;/b&gt;&lt;/font&gt;&lt;div style=&quot;font-size: 10px;&quot;&gt;[%c4Type%]&lt;/div&gt;&lt;br style=&quot;font-size: 10px;&quot;&gt;&lt;div style=&quot;font-size: 10px;&quot;&gt;&lt;font style=&quot;font-size: 10px;&quot;&gt;&lt;font style=&quot;font-size: 10px;&quot;&gt;%c4Description%&lt;/font&gt;&lt;/font&gt;&lt;/div&gt;" id="9LjVpIPV9_LV7MafVZk_-19">
          <mxCell style="html=1;fontSize=10;dashed=0;whiteSpace=wrap;fillColor=none;strokeColor=#2393f0;fontColor=#000000;shape=mxgraph.c4.person2;align=center;metaEdit=1;points=[[0.5,0,0],[1,0.5,0],[1,0.75,0],[0.75,1,0],[0.5,1,0],[0.25,1,0],[0,0.75,0],[0,0.5,0]];resizable=1;resizeHeight=1;resizeWidth=1;sketch=1;curveFitting=1;jiggle=2;shadow=1;" parent="1" vertex="1">
            <mxGeometry x="50" y="-1440" width="120" height="120" as="geometry" />
          </mxCell>
        </object>
        <object placeholders="1" c4Name="Operador - Parceiro" c4Type="Person" c4Description="Description of person." label="&lt;font style=&quot;font-size: 10px;&quot;&gt;&lt;b style=&quot;font-size: 10px;&quot;&gt;%c4Name%&lt;/b&gt;&lt;/font&gt;&lt;div style=&quot;font-size: 10px;&quot;&gt;[%c4Type%]&lt;/div&gt;&lt;br style=&quot;font-size: 10px;&quot;&gt;&lt;div style=&quot;font-size: 10px;&quot;&gt;&lt;font style=&quot;font-size: 10px;&quot;&gt;&lt;font style=&quot;font-size: 10px;&quot;&gt;%c4Description%&lt;/font&gt;&lt;/font&gt;&lt;/div&gt;" id="9LjVpIPV9_LV7MafVZk_-20">
          <mxCell style="html=1;fontSize=10;dashed=0;whiteSpace=wrap;fillColor=none;strokeColor=#2393f0;fontColor=#000000;shape=mxgraph.c4.person2;align=center;metaEdit=1;points=[[0.5,0,0],[1,0.5,0],[1,0.75,0],[0.75,1,0],[0.5,1,0],[0.25,1,0],[0,0.75,0],[0,0.5,0]];resizable=1;resizeHeight=1;resizeWidth=1;sketch=1;curveFitting=1;jiggle=2;shadow=1;" parent="1" vertex="1">
            <mxGeometry x="230" y="-1440" width="120" height="120" as="geometry" />
          </mxCell>
        </object>
        <object placeholders="1" c4Name="Operador - Lojista" c4Type="Person" c4Description="Description of person." label="&lt;font style=&quot;font-size: 10px;&quot;&gt;&lt;b style=&quot;font-size: 10px;&quot;&gt;%c4Name%&lt;/b&gt;&lt;/font&gt;&lt;div style=&quot;font-size: 10px;&quot;&gt;[%c4Type%]&lt;/div&gt;&lt;br style=&quot;font-size: 10px;&quot;&gt;&lt;div style=&quot;font-size: 10px;&quot;&gt;&lt;font style=&quot;font-size: 10px;&quot;&gt;&lt;font style=&quot;font-size: 10px;&quot;&gt;%c4Description%&lt;/font&gt;&lt;/font&gt;&lt;/div&gt;" id="9LjVpIPV9_LV7MafVZk_-21">
          <mxCell style="html=1;fontSize=10;dashed=0;whiteSpace=wrap;fillColor=none;strokeColor=#2393f0;fontColor=#000000;shape=mxgraph.c4.person2;align=center;metaEdit=1;points=[[0.5,0,0],[1,0.5,0],[1,0.75,0],[0.75,1,0],[0.5,1,0],[0.25,1,0],[0,0.75,0],[0,0.5,0]];resizable=1;resizeHeight=1;resizeWidth=1;sketch=1;curveFitting=1;jiggle=2;shadow=1;" parent="1" vertex="1">
            <mxGeometry x="496" y="-1440" width="120" height="120" as="geometry" />
          </mxCell>
        </object>
        <mxCell id="9LjVpIPV9_LV7MafVZk_-16" value="" style="endArrow=classic;html=1;rounded=0;exitX=0.998;exitY=0.678;exitDx=0;exitDy=0;exitPerimeter=0;labelBackgroundColor=#000000;labelBorderColor=none;" parent="1" source="9LjVpIPV9_LV7MafVZk_-14" edge="1">
          <mxGeometry width="50" height="50" relative="1" as="geometry">
            <mxPoint x="650" y="-1240" as="sourcePoint" />
            <mxPoint x="500" y="-1548" as="targetPoint" />
            <Array as="points" />
          </mxGeometry>
        </mxCell>
        <mxCell id="9LjVpIPV9_LV7MafVZk_-22" value="" style="endArrow=classic;html=1;rounded=0;exitX=0.5;exitY=1;exitDx=0;exitDy=0;exitPerimeter=0;entryX=0.5;entryY=0;entryDx=0;entryDy=0;entryPerimeter=0;labelBackgroundColor=#000000;labelBorderColor=none;" parent="1" source="9LjVpIPV9_LV7MafVZk_-14" target="9LjVpIPV9_LV7MafVZk_-20" edge="1">
          <mxGeometry width="50" height="50" relative="1" as="geometry">
            <mxPoint x="363" y="-1538" as="sourcePoint" />
            <mxPoint x="510" y="-1538" as="targetPoint" />
            <Array as="points" />
          </mxGeometry>
        </mxCell>
        <mxCell id="9LjVpIPV9_LV7MafVZk_-23" value="" style="endArrow=classic;html=1;rounded=0;exitX=0.5;exitY=1;exitDx=0;exitDy=0;exitPerimeter=0;entryX=0.5;entryY=0;entryDx=0;entryDy=0;entryPerimeter=0;labelBackgroundColor=#000000;labelBorderColor=none;" parent="1" source="9LjVpIPV9_LV7MafVZk_-14" target="9LjVpIPV9_LV7MafVZk_-19" edge="1">
          <mxGeometry width="50" height="50" relative="1" as="geometry">
            <mxPoint x="300" y="-1500" as="sourcePoint" />
            <mxPoint x="300" y="-1430" as="targetPoint" />
            <Array as="points">
              <mxPoint x="290" y="-1480" />
              <mxPoint x="110" y="-1480" />
            </Array>
          </mxGeometry>
        </mxCell>
        <object placeholders="1" c4Name="Operador - Lojista Operador" c4Type="Person" c4Description="Description of person." label="&lt;font style=&quot;font-size: 10px;&quot;&gt;&lt;b style=&quot;font-size: 10px;&quot;&gt;%c4Name%&lt;/b&gt;&lt;/font&gt;&lt;div style=&quot;font-size: 10px;&quot;&gt;[%c4Type%]&lt;/div&gt;&lt;br style=&quot;font-size: 10px;&quot;&gt;&lt;div style=&quot;font-size: 10px;&quot;&gt;&lt;font style=&quot;font-size: 10px;&quot;&gt;&lt;font style=&quot;font-size: 10px;&quot;&gt;%c4Description%&lt;/font&gt;&lt;/font&gt;&lt;/div&gt;" id="9LjVpIPV9_LV7MafVZk_-24">
          <mxCell style="html=1;fontSize=10;dashed=0;whiteSpace=wrap;fillColor=none;strokeColor=#2393f0;fontColor=#000000;shape=mxgraph.c4.person2;align=center;metaEdit=1;points=[[0.5,0,0],[1,0.5,0],[1,0.75,0],[0.75,1,0],[0.5,1,0],[0.25,1,0],[0,0.75,0],[0,0.5,0]];resizable=1;resizeHeight=1;resizeWidth=1;sketch=1;curveFitting=1;jiggle=2;shadow=1;" parent="1" vertex="1">
            <mxGeometry x="700" y="-1440" width="120" height="120" as="geometry" />
          </mxCell>
        </object>
        <mxCell id="9LjVpIPV9_LV7MafVZk_-25" value="" style="endArrow=classic;html=1;rounded=0;exitX=0.5;exitY=1;exitDx=0;exitDy=0;exitPerimeter=0;entryX=0.5;entryY=0;entryDx=0;entryDy=0;entryPerimeter=0;labelBackgroundColor=#000000;labelBorderColor=none;" parent="1" source="9LjVpIPV9_LV7MafVZk_-18" target="9LjVpIPV9_LV7MafVZk_-21" edge="1">
          <mxGeometry width="50" height="50" relative="1" as="geometry">
            <mxPoint x="559.5799999999999" y="-1510" as="sourcePoint" />
            <mxPoint x="560" y="-1440" as="targetPoint" />
            <Array as="points" />
          </mxGeometry>
        </mxCell>
        <mxCell id="9LjVpIPV9_LV7MafVZk_-26" value="" style="endArrow=classic;html=1;rounded=0;exitX=0.5;exitY=1;exitDx=0;exitDy=0;exitPerimeter=0;entryX=0.5;entryY=0;entryDx=0;entryDy=0;entryPerimeter=0;labelBackgroundColor=#000000;labelBorderColor=none;" parent="1" source="9LjVpIPV9_LV7MafVZk_-18" target="9LjVpIPV9_LV7MafVZk_-24" edge="1">
          <mxGeometry width="50" height="50" relative="1" as="geometry">
            <mxPoint x="720" y="-1470" as="sourcePoint" />
            <mxPoint x="540" y="-1400" as="targetPoint" />
            <Array as="points">
              <mxPoint x="555" y="-1480" />
              <mxPoint x="760" y="-1480" />
            </Array>
          </mxGeometry>
        </mxCell>
        <mxCell id="QyI3JkIz87z2IpXrXwIC-1" value="" style="endArrow=classic;html=1;rounded=0;sketch=1;curveFitting=1;jiggle=2;shadow=1;flowAnimation=0;strokeColor=#1ba2ff;entryX=0.24;entryY=0.061;entryDx=0;entryDy=0;entryPerimeter=0;" parent="1" target="t1MQLtx_i-sLdBep8YN4-21" edge="1">
          <mxGeometry width="50" height="50" relative="1" as="geometry">
            <mxPoint x="690" y="-220" as="sourcePoint" />
            <mxPoint x="887" y="-81" as="targetPoint" />
            <Array as="points">
              <mxPoint x="690" y="-120" />
              <mxPoint x="890" y="-120" />
            </Array>
          </mxGeometry>
        </mxCell>
        <mxCell id="QyI3JkIz87z2IpXrXwIC-2" value="link" style="edgeLabel;html=1;align=center;verticalAlign=middle;resizable=0;points=[];" parent="QyI3JkIz87z2IpXrXwIC-1" vertex="1" connectable="0">
          <mxGeometry x="0.2227" y="-2" relative="1" as="geometry">
            <mxPoint x="-18" y="6" as="offset" />
          </mxGeometry>
        </mxCell>
        <mxCell id="nhsElahdcYhkOj0Tyt5h-7" value="Parceiro" style="swimlane;fontStyle=1;align=center;verticalAlign=top;childLayout=stackLayout;horizontal=1;startSize=26;horizontalStack=0;resizeParent=1;resizeParentMax=0;resizeLast=0;collapsible=1;marginBottom=0;whiteSpace=wrap;html=1;sketch=1;curveFitting=1;jiggle=2;strokeColor=#1ba2ff;rounded=1;" parent="1" vertex="1">
          <mxGeometry x="-100" y="-920" width="160" height="86" as="geometry" />
        </mxCell>
        <mxCell id="nhsElahdcYhkOj0Tyt5h-8" value="+ Endrec&lt;span style=&quot;white-space: pre;&quot;&gt;&#x9;&lt;/span&gt;: ParceiroEndereço" style="text;strokeColor=none;fillColor=none;align=left;verticalAlign=top;spacingLeft=4;spacingRight=4;overflow=hidden;rotatable=0;points=[[0,0.5],[1,0.5]];portConstraint=eastwest;whiteSpace=wrap;html=1;" parent="nhsElahdcYhkOj0Tyt5h-7" vertex="1">
          <mxGeometry y="26" width="160" height="26" as="geometry" />
        </mxCell>
        <mxCell id="nhsElahdcYhkOj0Tyt5h-9" value="" style="line;strokeWidth=1;fillColor=none;align=left;verticalAlign=middle;spacingTop=-1;spacingLeft=3;spacingRight=3;rotatable=0;labelPosition=right;points=[];portConstraint=eastwest;strokeColor=inherit;" parent="nhsElahdcYhkOj0Tyt5h-7" vertex="1">
          <mxGeometry y="52" width="160" height="8" as="geometry" />
        </mxCell>
        <mxCell id="nhsElahdcYhkOj0Tyt5h-10" value="+ method(type): type" style="text;strokeColor=none;fillColor=none;align=left;verticalAlign=top;spacingLeft=4;spacingRight=4;overflow=hidden;rotatable=0;points=[[0,0.5],[1,0.5]];portConstraint=eastwest;whiteSpace=wrap;html=1;" parent="nhsElahdcYhkOj0Tyt5h-7" vertex="1">
          <mxGeometry y="60" width="160" height="26" as="geometry" />
        </mxCell>
        <mxCell id="nhsElahdcYhkOj0Tyt5h-11" value="Lojista" style="swimlane;fontStyle=1;align=center;verticalAlign=top;childLayout=stackLayout;horizontal=1;startSize=26;horizontalStack=0;resizeParent=1;resizeParentMax=0;resizeLast=0;collapsible=1;marginBottom=0;whiteSpace=wrap;html=1;sketch=1;curveFitting=1;jiggle=2;strokeColor=#1ba2ff;rounded=1;" parent="1" vertex="1">
          <mxGeometry x="515" y="-920" width="160" height="86" as="geometry" />
        </mxCell>
        <mxCell id="nhsElahdcYhkOj0Tyt5h-12" value="+ field: type" style="text;strokeColor=none;fillColor=none;align=left;verticalAlign=top;spacingLeft=4;spacingRight=4;overflow=hidden;rotatable=0;points=[[0,0.5],[1,0.5]];portConstraint=eastwest;whiteSpace=wrap;html=1;" parent="nhsElahdcYhkOj0Tyt5h-11" vertex="1">
          <mxGeometry y="26" width="160" height="26" as="geometry" />
        </mxCell>
        <mxCell id="nhsElahdcYhkOj0Tyt5h-13" value="" style="line;strokeWidth=1;fillColor=none;align=left;verticalAlign=middle;spacingTop=-1;spacingLeft=3;spacingRight=3;rotatable=0;labelPosition=right;points=[];portConstraint=eastwest;strokeColor=inherit;" parent="nhsElahdcYhkOj0Tyt5h-11" vertex="1">
          <mxGeometry y="52" width="160" height="8" as="geometry" />
        </mxCell>
        <mxCell id="nhsElahdcYhkOj0Tyt5h-14" value="+ method(type): type" style="text;strokeColor=none;fillColor=none;align=left;verticalAlign=top;spacingLeft=4;spacingRight=4;overflow=hidden;rotatable=0;points=[[0,0.5],[1,0.5]];portConstraint=eastwest;whiteSpace=wrap;html=1;" parent="nhsElahdcYhkOj0Tyt5h-11" vertex="1">
          <mxGeometry y="60" width="160" height="26" as="geometry" />
        </mxCell>
        <mxCell id="nhsElahdcYhkOj0Tyt5h-15" value="Moeda" style="swimlane;fontStyle=1;align=center;verticalAlign=top;childLayout=stackLayout;horizontal=1;startSize=26;horizontalStack=0;resizeParent=1;resizeParentMax=0;resizeLast=0;collapsible=1;marginBottom=0;whiteSpace=wrap;html=1;sketch=1;curveFitting=1;jiggle=2;strokeColor=#1ba2ff;rounded=1;" parent="1" vertex="1">
          <mxGeometry x="-100" y="-770" width="160" height="86" as="geometry" />
        </mxCell>
        <mxCell id="nhsElahdcYhkOj0Tyt5h-16" value="+ field: type" style="text;strokeColor=none;fillColor=none;align=left;verticalAlign=top;spacingLeft=4;spacingRight=4;overflow=hidden;rotatable=0;points=[[0,0.5],[1,0.5]];portConstraint=eastwest;whiteSpace=wrap;html=1;" parent="nhsElahdcYhkOj0Tyt5h-15" vertex="1">
          <mxGeometry y="26" width="160" height="26" as="geometry" />
        </mxCell>
        <mxCell id="nhsElahdcYhkOj0Tyt5h-17" value="" style="line;strokeWidth=1;fillColor=none;align=left;verticalAlign=middle;spacingTop=-1;spacingLeft=3;spacingRight=3;rotatable=0;labelPosition=right;points=[];portConstraint=eastwest;strokeColor=inherit;" parent="nhsElahdcYhkOj0Tyt5h-15" vertex="1">
          <mxGeometry y="52" width="160" height="8" as="geometry" />
        </mxCell>
        <mxCell id="nhsElahdcYhkOj0Tyt5h-18" value="+ method(type): type" style="text;strokeColor=none;fillColor=none;align=left;verticalAlign=top;spacingLeft=4;spacingRight=4;overflow=hidden;rotatable=0;points=[[0,0.5],[1,0.5]];portConstraint=eastwest;whiteSpace=wrap;html=1;" parent="nhsElahdcYhkOj0Tyt5h-15" vertex="1">
          <mxGeometry y="60" width="160" height="26" as="geometry" />
        </mxCell>
        <mxCell id="nhsElahdcYhkOj0Tyt5h-19" value="Operador" style="swimlane;fontStyle=1;align=center;verticalAlign=top;childLayout=stackLayout;horizontal=1;startSize=26;horizontalStack=0;resizeParent=1;resizeParentMax=0;resizeLast=0;collapsible=1;marginBottom=0;whiteSpace=wrap;html=1;sketch=1;curveFitting=1;jiggle=2;strokeColor=#1ba2ff;rounded=1;" parent="1" vertex="1">
          <mxGeometry x="90" y="-770" width="160" height="86" as="geometry" />
        </mxCell>
        <mxCell id="nhsElahdcYhkOj0Tyt5h-20" value="+ field: type" style="text;strokeColor=none;fillColor=none;align=left;verticalAlign=top;spacingLeft=4;spacingRight=4;overflow=hidden;rotatable=0;points=[[0,0.5],[1,0.5]];portConstraint=eastwest;whiteSpace=wrap;html=1;" parent="nhsElahdcYhkOj0Tyt5h-19" vertex="1">
          <mxGeometry y="26" width="160" height="26" as="geometry" />
        </mxCell>
        <mxCell id="nhsElahdcYhkOj0Tyt5h-21" value="" style="line;strokeWidth=1;fillColor=none;align=left;verticalAlign=middle;spacingTop=-1;spacingLeft=3;spacingRight=3;rotatable=0;labelPosition=right;points=[];portConstraint=eastwest;strokeColor=inherit;" parent="nhsElahdcYhkOj0Tyt5h-19" vertex="1">
          <mxGeometry y="52" width="160" height="8" as="geometry" />
        </mxCell>
        <mxCell id="nhsElahdcYhkOj0Tyt5h-22" value="+ method(type): type" style="text;strokeColor=none;fillColor=none;align=left;verticalAlign=top;spacingLeft=4;spacingRight=4;overflow=hidden;rotatable=0;points=[[0,0.5],[1,0.5]];portConstraint=eastwest;whiteSpace=wrap;html=1;" parent="nhsElahdcYhkOj0Tyt5h-19" vertex="1">
          <mxGeometry y="60" width="160" height="26" as="geometry" />
        </mxCell>
        <mxCell id="nhsElahdcYhkOj0Tyt5h-27" value="AlertaLimiteEvasao" style="swimlane;fontStyle=1;align=center;verticalAlign=top;childLayout=stackLayout;horizontal=1;startSize=26;horizontalStack=0;resizeParent=1;resizeParentMax=0;resizeLast=0;collapsible=1;marginBottom=0;whiteSpace=wrap;html=1;sketch=1;curveFitting=1;jiggle=2;strokeColor=#1ba2ff;rounded=1;" parent="1" vertex="1">
          <mxGeometry x="520" y="-770" width="160" height="86" as="geometry" />
        </mxCell>
        <mxCell id="nhsElahdcYhkOj0Tyt5h-28" value="+ field: type" style="text;strokeColor=none;fillColor=none;align=left;verticalAlign=top;spacingLeft=4;spacingRight=4;overflow=hidden;rotatable=0;points=[[0,0.5],[1,0.5]];portConstraint=eastwest;whiteSpace=wrap;html=1;" parent="nhsElahdcYhkOj0Tyt5h-27" vertex="1">
          <mxGeometry y="26" width="160" height="26" as="geometry" />
        </mxCell>
        <mxCell id="nhsElahdcYhkOj0Tyt5h-29" value="" style="line;strokeWidth=1;fillColor=none;align=left;verticalAlign=middle;spacingTop=-1;spacingLeft=3;spacingRight=3;rotatable=0;labelPosition=right;points=[];portConstraint=eastwest;strokeColor=inherit;" parent="nhsElahdcYhkOj0Tyt5h-27" vertex="1">
          <mxGeometry y="52" width="160" height="8" as="geometry" />
        </mxCell>
        <mxCell id="nhsElahdcYhkOj0Tyt5h-30" value="+ method(type): type" style="text;strokeColor=none;fillColor=none;align=left;verticalAlign=top;spacingLeft=4;spacingRight=4;overflow=hidden;rotatable=0;points=[[0,0.5],[1,0.5]];portConstraint=eastwest;whiteSpace=wrap;html=1;" parent="nhsElahdcYhkOj0Tyt5h-27" vertex="1">
          <mxGeometry y="60" width="160" height="26" as="geometry" />
        </mxCell>
        <mxCell id="nhsElahdcYhkOj0Tyt5h-31" value="LimiteEvasao" style="swimlane;fontStyle=1;align=center;verticalAlign=top;childLayout=stackLayout;horizontal=1;startSize=26;horizontalStack=0;resizeParent=1;resizeParentMax=0;resizeLast=0;collapsible=1;marginBottom=0;whiteSpace=wrap;html=1;sketch=1;curveFitting=1;jiggle=2;strokeColor=#1ba2ff;rounded=1;" parent="1" vertex="1">
          <mxGeometry x="290" y="-770" width="160" height="86" as="geometry" />
        </mxCell>
        <mxCell id="nhsElahdcYhkOj0Tyt5h-32" value="+ field: type" style="text;strokeColor=none;fillColor=none;align=left;verticalAlign=top;spacingLeft=4;spacingRight=4;overflow=hidden;rotatable=0;points=[[0,0.5],[1,0.5]];portConstraint=eastwest;whiteSpace=wrap;html=1;" parent="nhsElahdcYhkOj0Tyt5h-31" vertex="1">
          <mxGeometry y="26" width="160" height="26" as="geometry" />
        </mxCell>
        <mxCell id="nhsElahdcYhkOj0Tyt5h-33" value="" style="line;strokeWidth=1;fillColor=none;align=left;verticalAlign=middle;spacingTop=-1;spacingLeft=3;spacingRight=3;rotatable=0;labelPosition=right;points=[];portConstraint=eastwest;strokeColor=inherit;" parent="nhsElahdcYhkOj0Tyt5h-31" vertex="1">
          <mxGeometry y="52" width="160" height="8" as="geometry" />
        </mxCell>
        <mxCell id="nhsElahdcYhkOj0Tyt5h-34" value="+ method(type): type" style="text;strokeColor=none;fillColor=none;align=left;verticalAlign=top;spacingLeft=4;spacingRight=4;overflow=hidden;rotatable=0;points=[[0,0.5],[1,0.5]];portConstraint=eastwest;whiteSpace=wrap;html=1;" parent="nhsElahdcYhkOj0Tyt5h-31" vertex="1">
          <mxGeometry y="60" width="160" height="26" as="geometry" />
        </mxCell>
        <mxCell id="nhsElahdcYhkOj0Tyt5h-35" value="MoedaParceiroHistorico" style="swimlane;fontStyle=1;align=center;verticalAlign=top;childLayout=stackLayout;horizontal=1;startSize=26;horizontalStack=0;resizeParent=1;resizeParentMax=0;resizeLast=0;collapsible=1;marginBottom=0;whiteSpace=wrap;html=1;sketch=1;curveFitting=1;jiggle=2;strokeColor=#1ba2ff;rounded=1;" parent="1" vertex="1">
          <mxGeometry x="-100" y="-670" width="160" height="86" as="geometry" />
        </mxCell>
        <mxCell id="nhsElahdcYhkOj0Tyt5h-36" value="+ field: type" style="text;strokeColor=none;fillColor=none;align=left;verticalAlign=top;spacingLeft=4;spacingRight=4;overflow=hidden;rotatable=0;points=[[0,0.5],[1,0.5]];portConstraint=eastwest;whiteSpace=wrap;html=1;" parent="nhsElahdcYhkOj0Tyt5h-35" vertex="1">
          <mxGeometry y="26" width="160" height="26" as="geometry" />
        </mxCell>
        <mxCell id="nhsElahdcYhkOj0Tyt5h-37" value="" style="line;strokeWidth=1;fillColor=none;align=left;verticalAlign=middle;spacingTop=-1;spacingLeft=3;spacingRight=3;rotatable=0;labelPosition=right;points=[];portConstraint=eastwest;strokeColor=inherit;" parent="nhsElahdcYhkOj0Tyt5h-35" vertex="1">
          <mxGeometry y="52" width="160" height="8" as="geometry" />
        </mxCell>
        <mxCell id="nhsElahdcYhkOj0Tyt5h-38" value="+ method(type): type" style="text;strokeColor=none;fillColor=none;align=left;verticalAlign=top;spacingLeft=4;spacingRight=4;overflow=hidden;rotatable=0;points=[[0,0.5],[1,0.5]];portConstraint=eastwest;whiteSpace=wrap;html=1;" parent="nhsElahdcYhkOj0Tyt5h-35" vertex="1">
          <mxGeometry y="60" width="160" height="26" as="geometry" />
        </mxCell>
        <mxCell id="nhsElahdcYhkOj0Tyt5h-39" value="MoedaParceiroAprovacao&lt;div&gt;&lt;br&gt;&lt;/div&gt;" style="swimlane;fontStyle=1;align=center;verticalAlign=top;childLayout=stackLayout;horizontal=1;startSize=26;horizontalStack=0;resizeParent=1;resizeParentMax=0;resizeLast=0;collapsible=1;marginBottom=0;whiteSpace=wrap;html=1;sketch=1;curveFitting=1;jiggle=2;strokeColor=#1ba2ff;rounded=1;" parent="1" vertex="1">
          <mxGeometry x="-100" y="-570" width="160" height="86" as="geometry" />
        </mxCell>
        <mxCell id="nhsElahdcYhkOj0Tyt5h-40" value="+ field: type" style="text;strokeColor=none;fillColor=none;align=left;verticalAlign=top;spacingLeft=4;spacingRight=4;overflow=hidden;rotatable=0;points=[[0,0.5],[1,0.5]];portConstraint=eastwest;whiteSpace=wrap;html=1;" parent="nhsElahdcYhkOj0Tyt5h-39" vertex="1">
          <mxGeometry y="26" width="160" height="26" as="geometry" />
        </mxCell>
        <mxCell id="nhsElahdcYhkOj0Tyt5h-41" value="" style="line;strokeWidth=1;fillColor=none;align=left;verticalAlign=middle;spacingTop=-1;spacingLeft=3;spacingRight=3;rotatable=0;labelPosition=right;points=[];portConstraint=eastwest;strokeColor=inherit;" parent="nhsElahdcYhkOj0Tyt5h-39" vertex="1">
          <mxGeometry y="52" width="160" height="8" as="geometry" />
        </mxCell>
        <mxCell id="nhsElahdcYhkOj0Tyt5h-42" value="+ method(type): type" style="text;strokeColor=none;fillColor=none;align=left;verticalAlign=top;spacingLeft=4;spacingRight=4;overflow=hidden;rotatable=0;points=[[0,0.5],[1,0.5]];portConstraint=eastwest;whiteSpace=wrap;html=1;" parent="nhsElahdcYhkOj0Tyt5h-39" vertex="1">
          <mxGeometry y="60" width="160" height="26" as="geometry" />
        </mxCell>
        <mxCell id="9LjVpIPV9_LV7MafVZk_-12" value="Legenda" style="rounded=1;whiteSpace=wrap;html=1;sketch=1;curveFitting=1;jiggle=2;shadow=1;strokeColor=#1ba2ff;dashed=1;strokeWidth=1;perimeterSpacing=0;dashPattern=8 8;verticalAlign=bottom;align=left;" parent="1" vertex="1">
          <mxGeometry x="210" y="241" width="850" height="150" as="geometry" />
        </mxCell>
        <mxCell id="UqKW2uymTNwUZO6XBEKQ-1" value="database" style="shape=cylinder3;whiteSpace=wrap;html=1;boundedLbl=1;backgroundOutline=1;size=15;fillColor=none;strokeColor=#0284f1;shadow=1;sketch=1;curveFitting=1;jiggle=2;" parent="1" vertex="1">
          <mxGeometry x="680" y="257" width="100" height="60" as="geometry" />
        </mxCell>
        <mxCell id="UqKW2uymTNwUZO6XBEKQ-2" value="Service" style="ellipse;whiteSpace=wrap;html=1;fillColor=none;strokeColor=#1ba2ff;sketch=1;curveFitting=1;jiggle=2;shadow=1;" parent="1" vertex="1">
          <mxGeometry x="430" y="257" width="120" height="60" as="geometry" />
        </mxCell>
        <mxCell id="UqKW2uymTNwUZO6XBEKQ-6" value="front-end" style="rounded=1;whiteSpace=wrap;html=1;sketch=1;curveFitting=1;jiggle=2;shadow=1;strokeColor=#1ba2ff;" parent="1" vertex="1">
          <mxGeometry x="300" y="257" width="120" height="60" as="geometry" />
        </mxCell>
        <mxCell id="UqKW2uymTNwUZO6XBEKQ-7" value="Actor" style="shape=umlActor;verticalLabelPosition=bottom;verticalAlign=top;html=1;outlineConnect=0;shadow=1;sketch=1;curveFitting=1;jiggle=2;strokeColor=#0284f1;" parent="1" vertex="1">
          <mxGeometry x="260" y="260" width="30" height="60" as="geometry" />
        </mxCell>
        <mxCell id="UqKW2uymTNwUZO6XBEKQ-11" value="batch" style="shape=trapezoid;perimeter=trapezoidPerimeter;whiteSpace=wrap;html=1;fixedSize=1;rounded=1;shadow=1;sketch=1;curveFitting=1;jiggle=2;fillColor=none;strokeColor=#1399fa;" parent="1" vertex="1">
          <mxGeometry x="550" y="257" width="120" height="60" as="geometry" />
        </mxCell>
        <mxCell id="UqKW2uymTNwUZO6XBEKQ-12" value="blackbox" style="rounded=1;whiteSpace=wrap;html=1;fillColor=#1ba2ff;sketch=1;curveFitting=1;jiggle=2;shadow=1;strokeColor=#1ba2ff;" parent="1" vertex="1">
          <mxGeometry x="790" y="257" width="120" height="60" as="geometry" />
        </mxCell>
        <mxCell id="UqKW2uymTNwUZO6XBEKQ-13" value="" style="endArrow=classic;html=1;rounded=0;sketch=1;curveFitting=1;jiggle=2;shadow=1;flowAnimation=0;strokeColor=#0284f1;" parent="1" edge="1">
          <mxGeometry width="50" height="50" relative="1" as="geometry">
            <mxPoint x="258" y="369" as="sourcePoint" />
            <mxPoint x="365" y="369" as="targetPoint" />
          </mxGeometry>
        </mxCell>
        <mxCell id="UqKW2uymTNwUZO6XBEKQ-14" value="link" style="edgeLabel;html=1;align=center;verticalAlign=middle;resizable=0;points=[];" parent="UqKW2uymTNwUZO6XBEKQ-13" vertex="1" connectable="0">
          <mxGeometry x="0.2227" y="-2" relative="1" as="geometry">
            <mxPoint x="-18" y="6" as="offset" />
          </mxGeometry>
        </mxCell>
        <mxCell id="UqKW2uymTNwUZO6XBEKQ-19" value="always link" style="html=1;verticalAlign=bottom;startArrow=circle;startFill=1;endArrow=open;startSize=6;endSize=8;curved=0;rounded=0;strokeColor=#1aa1fe;sketch=1;curveFitting=1;jiggle=2;shadow=1;" parent="1" edge="1">
          <mxGeometry x="0.0909" y="-20" width="80" relative="1" as="geometry">
            <mxPoint x="380" y="367" as="sourcePoint" />
            <mxPoint x="490" y="367" as="targetPoint" />
            <mxPoint as="offset" />
          </mxGeometry>
        </mxCell>
        <mxCell id="UqKW2uymTNwUZO6XBEKQ-20" value="" style="endArrow=block;endFill=0;endSize=12;html=1;rounded=0;sketch=1;curveFitting=1;jiggle=2;shadow=1;strokeColor=#19a0fd;" parent="1" edge="1">
          <mxGeometry width="160" relative="1" as="geometry">
            <mxPoint x="498" y="367" as="sourcePoint" />
            <mxPoint x="618" y="367" as="targetPoint" />
          </mxGeometry>
        </mxCell>
        <mxCell id="UqKW2uymTNwUZO6XBEKQ-21" value="Specialization" style="edgeLabel;html=1;align=center;verticalAlign=middle;resizable=0;points=[];" parent="UqKW2uymTNwUZO6XBEKQ-20" vertex="1" connectable="0">
          <mxGeometry x="0.0714" y="3" relative="1" as="geometry">
            <mxPoint x="-4" y="13" as="offset" />
          </mxGeometry>
        </mxCell>
        <mxCell id="UqKW2uymTNwUZO6XBEKQ-22" value="" style="endArrow=diamondThin;endFill=1;endSize=24;html=1;rounded=0;shadow=1;flowAnimation=0;sketch=1;curveFitting=1;jiggle=2;strokeColor=#1ba2ff;" parent="1" edge="1">
          <mxGeometry width="160" relative="1" as="geometry">
            <mxPoint x="628" y="367" as="sourcePoint" />
            <mxPoint x="740" y="367" as="targetPoint" />
          </mxGeometry>
        </mxCell>
        <mxCell id="UqKW2uymTNwUZO6XBEKQ-25" value="Composition" style="edgeLabel;html=1;align=center;verticalAlign=middle;resizable=0;points=[];" parent="UqKW2uymTNwUZO6XBEKQ-22" vertex="1" connectable="0">
          <mxGeometry x="-0.18" relative="1" as="geometry">
            <mxPoint y="10" as="offset" />
          </mxGeometry>
        </mxCell>
        <mxCell id="UqKW2uymTNwUZO6XBEKQ-23" value="Tier" style="rounded=1;whiteSpace=wrap;html=1;sketch=1;curveFitting=1;jiggle=2;shadow=1;strokeColor=#1ba2ff;dashed=1;strokeWidth=1;perimeterSpacing=0;dashPattern=8 8;verticalAlign=bottom;align=left;" parent="1" vertex="1">
          <mxGeometry x="760" y="327" width="120" height="60" as="geometry" />
        </mxCell>
        <mxCell id="UqKW2uymTNwUZO6XBEKQ-24" value="Layer" style="rounded=1;whiteSpace=wrap;html=1;sketch=1;curveFitting=1;jiggle=2;shadow=1;strokeColor=#1ba2ff;verticalAlign=bottom;align=left;" parent="1" vertex="1">
          <mxGeometry x="890" y="328" width="120" height="60" as="geometry" />
        </mxCell>
        <mxCell id="XIsLTd74VLIhzC_wvNYL-54" value="Repasse" style="ellipse;whiteSpace=wrap;html=1;fillColor=none;strokeColor=#1ba2ff;sketch=1;curveFitting=1;jiggle=2;shadow=1;" parent="1" vertex="1">
          <mxGeometry x="634" y="70" width="120" height="60" as="geometry" />
        </mxCell>
        <mxCell id="b6K8kp3eEPkcjiH2hvGA-1" value="" style="endArrow=classic;html=1;rounded=0;sketch=1;curveFitting=1;jiggle=2;shadow=1;flowAnimation=0;strokeColor=#0284f1;exitX=0.689;exitY=0.972;exitDx=0;exitDy=0;entryX=0;entryY=0.5;entryDx=0;entryDy=0;exitPerimeter=0;" parent="1" source="t1MQLtx_i-sLdBep8YN4-5" target="9LjVpIPV9_LV7MafVZk_-3" edge="1">
          <mxGeometry width="50" height="50" relative="1" as="geometry">
            <mxPoint x="470" y="-210" as="sourcePoint" />
            <mxPoint x="644" y="37" as="targetPoint" />
            <Array as="points">
              <mxPoint x="483" y="-70" />
            </Array>
          </mxGeometry>
        </mxCell>
        <mxCell id="b6K8kp3eEPkcjiH2hvGA-2" value="link" style="edgeLabel;html=1;align=center;verticalAlign=middle;resizable=0;points=[];" parent="b6K8kp3eEPkcjiH2hvGA-1" vertex="1" connectable="0">
          <mxGeometry x="0.2227" y="-2" relative="1" as="geometry">
            <mxPoint x="-18" y="6" as="offset" />
          </mxGeometry>
        </mxCell>
        <mxCell id="6JeEkVuuOszYk5ZXXeia-1" value="" style="endArrow=classic;html=1;rounded=0;sketch=1;curveFitting=1;jiggle=2;shadow=1;flowAnimation=0;strokeColor=#0284f1;exitX=1;exitY=0.5;exitDx=0;exitDy=0;entryX=1;entryY=0.5;entryDx=0;entryDy=0;" parent="1" source="t1MQLtx_i-sLdBep8YN4-11" edge="1" target="t1MQLtx_i-sLdBep8YN4-14">
          <mxGeometry width="50" height="50" relative="1" as="geometry">
            <mxPoint x="1130" y="-47" as="sourcePoint" />
            <mxPoint x="1120" y="-260" as="targetPoint" />
            <Array as="points">
              <mxPoint x="1120" y="30" />
              <mxPoint x="1120" y="-30" />
              <mxPoint x="1120" y="-250" />
            </Array>
          </mxGeometry>
        </mxCell>
        <mxCell id="6JeEkVuuOszYk5ZXXeia-2" value="link" style="edgeLabel;html=1;align=center;verticalAlign=middle;resizable=0;points=[];" parent="6JeEkVuuOszYk5ZXXeia-1" vertex="1" connectable="0">
          <mxGeometry x="0.2227" y="-2" relative="1" as="geometry">
            <mxPoint x="-18" y="6" as="offset" />
          </mxGeometry>
        </mxCell>
      </root>
    </mxGraphModel>
  </diagram>
</mxfile>
